<?xml version="1.0" encoding="UTF-8"?>
<!DOCTYPE svg PUBLIC "-//W3C//DTD SVG 1.1//EN" "http://www.w3.org/Graphics/SVG/1.1/DTD/svg11.dtd">
<svg xmlns="http://www.w3.org/2000/svg" xml:space="preserve" width="526px" height="150px" version="1.1" style="shape-rendering:geometricPrecision; text-rendering:geometricPrecision; image-rendering:optimizeQuality; fill-rule:evenodd; clip-rule:evenodd"
viewBox="0 0 72377 22029"
 xmlns:xlink="http://www.w3.org/1999/xlink">
 <defs>
  <style type="text/css">
   <![CDATA[
    .fil1 {fill:#333333}
    .fil0 {fill:#C0392B}
   ]]>
  </style>
 </defs>
 <g id="Слой_x0020_1">
  <metadata id="CorelCorpID_0Corel-Layer"/>
  <g id="_2572695229952">
   <path class="fil0" d="M12887 11014c-244,0 -490,-115 -490,-401 0,-263 697,-1115 1204,-1115 120,0 123,22 223,45 0,413 -125,645 -286,918 -76,127 -136,245 -221,359 -101,137 -209,194 -430,194zm-2854 -847c-232,0 -401,-339 -401,-579 0,-377 226,-901 357,-1160 83,-166 452,-936 624,-936 252,0 452,-33 591,212 378,666 -256,1625 -653,2134 -82,106 -367,329 -518,329zm1873 -2096c582,-154 803,286 803,669 0,251 -347,953 -471,1135 -115,168 -657,738 -867,738 -258,0 -269,-148 -357,-312 215,-320 709,-1189 820,-1589 84,-304 23,-449 72,-641zm-4370 -936l-5663 0c-648,0 -1192,44 -1873,44 438,381 1017,725 1498,1044l767 527c827,553 2333,1543 3074,2099 257,193 511,349 770,522 -196,371 -1086,3104 -1232,3540 -250,750 -1059,2904 -1220,3595 197,-105 324,-203 509,-338 501,-364 3234,-2236 3593,-2427 0,794 -75,1773 12,2441 120,925 38,439 32,1172l-10 529c-8,169 -34,383 -34,630 220,59 30,83 312,89l-44 -491c0,-501 134,-836 134,-1337 0,-750 55,-2639 -151,-3239 -122,-355 -28,-310 -28,-686 0,-503 -57,-883 -88,-1338 -27,-378 -317,-502 -637,-835 -345,-358 -688,-813 -854,-1286 -275,-782 -28,-2162 520,-2728 314,-325 131,-350 318,-618 326,-468 2119,-1771 2762,-1236 502,417 11,907 -549,907 -560,0 -1652,-268 -1829,490 587,-49 561,-134 1427,-134 381,0 412,124 536,357 -978,1125 -1357,535 -2186,535 0,481 357,494 357,981 0,450 -490,222 -490,402 0,439 401,295 668,447l531 315c165,81 12,67 228,85 0,-207 -26,-345 44,-491 180,-86 323,18 437,143 636,696 1137,1657 195,2362 -228,172 -642,305 -1033,305 -13,157 -27,336 -46,534 -27,292 -109,125 -60,458 72,489 330,2198 330,2663 2,999 93,1866 88,2945 -3,533 53,1078 210,1573 65,205 69,326 281,344 109,-470 167,-1255 161,-1763l-32 -4163c-48,-434 -219,-578 -219,-1209 0,-114 253,-240 357,-267 0,271 45,325 45,579l134 0c51,-221 240,-440 401,-579 267,178 228,395 166,701 -48,237 -56,645 -110,871 -96,395 -102,385 -43,823 93,696 129,1053 24,1789 -94,657 30,1438 181,2108 48,216 96,215 139,396 302,0 301,-74 421,-291 315,-572 142,-702 113,-1269 -12,-241 17,-601 14,-752l-149 -3036c-13,-160 -105,-563 -60,-686 79,-213 312,-243 374,-476 137,36 209,109 312,178 -6,-292 -89,-108 -89,-490 248,66 437,382 763,186 191,-114 385,-437 441,-677 -133,-31 -169,-58 -277,-124 -100,-63 -159,-91 -258,-143 67,-128 100,-196 178,-313 -500,117 -211,378 -866,-70 -499,-340 -244,-457 -184,-623 50,-139 6,-197 28,-331 73,-454 654,266 1513,266 235,0 149,-287 446,-356 192,286 27,618 -61,920l-296 953c-192,643 -208,425 -491,847 157,670 262,726 821,1097 413,274 757,520 1168,794 218,144 364,258 580,401 514,340 1257,921 1757,1186 -99,-425 -304,-888 -440,-1299 -540,-1634 -1167,-3220 -1706,-4849 -46,-137 -87,-278 -147,-433 -65,-168 -118,-288 -160,-465 146,-217 878,-660 1160,-847l2015 -1373c280,-186 531,-357 794,-544 757,-537 1561,-1017 2310,-1570 51,-38 61,-48 98,-80 -1323,0 -2646,0 -3969,0 -1358,0 -2591,44 -3968,44 -23,-271 -496,-1473 -596,-1767l-782 -2207c-239,-716 -947,-2565 -1075,-3116l-89 0c-137,587 -408,1195 -597,1767 -203,615 -1636,4952 -1856,5368z"/>
   <path class="fil1" d="M23278 14047l-2185 0 0 -1962 2318 0c575,0 1115,381 1115,936 0,684 -554,1026 -1248,1026zm-3345 -2854l0 6867c0,317 571,223 981,223 105,0 179,-74 179,-178l0 -2943c1879,0 1743,-242 3040,1819 998,1585 501,1302 1909,1302 455,0 -134,-719 -298,-995 -218,-369 -838,-1370 -1053,-1622 -63,-74 -82,-85 -146,-167 -74,-95 -77,-109 -162,-194l-295 -240c-37,-30 -69,-57 -97,-82 788,-65 1695,-859 1695,-1783 0,-539 1,-739 -267,-1250 -470,-899 -1475,-980 -2543,-980l-2720 0c-104,0 -223,119 -223,223z"/>
   <path class="fil1" d="M67514 12575l0 5530c0,206 251,134 758,134 188,0 139,-202 135,-400l-1 -3748c32,37 42,48 80,99l262 406c549,929 1760,2583 2241,3423 166,290 93,220 895,220 103,0 134,-31 134,-134l0 -5530c0,-202 -229,-134 -714,-134 -263,0 -178,482 -178,892l0 3211c-133,-98 -564,-803 -688,-1007l-1382 -2096c-123,-188 -208,-336 -329,-518 -385,-576 -179,-482 -1079,-482 -103,0 -134,31 -134,134z"/>
   <path class="fil1" d="M62029 15429c0,-614 145,-1204 400,-1562 696,-978 3167,-1202 3167,1607 0,1665 -1423,2380 -2543,1829 -143,-70 -180,-81 -300,-189l-248 -243c-169,-192 -256,-344 -338,-599 -64,-201 -138,-591 -138,-843zm-936 -89c0,1620 1024,2988 2630,2988 594,0 784,-25 1300,-262 161,-74 279,-139 421,-247 1459,-1104 1335,-3612 388,-4587 -689,-709 -1185,-880 -2198,-880 -1512,0 -2541,1378 -2541,2988z"/>
   <path class="fil1" d="M38395 15429c0,-614 144,-1204 400,-1562 696,-978 3167,-1202 3167,1607 0,1665 -1423,2380 -2543,1829 -225,-111 -253,-138 -440,-317 -7,-7 -17,-16 -23,-22 -7,-7 -16,-16 -22,-23 -375,-387 -539,-962 -539,-1512zm-937 -89c0,1620 1025,2988 2631,2988 1195,0 2158,-539 2581,-1656 410,-1084 292,-2653 -473,-3440 -689,-709 -1184,-880 -2197,-880 -797,0 -1484,462 -1860,905 -400,471 -682,1231 -682,2083z"/>
   <path class="fil1" d="M27023 12620l0 5440c0,105 74,179 179,179l3969 0c245,0 178,-330 178,-669 0,-105 -74,-179 -178,-179l-3211 0 0 -1739 2898 0c202,0 134,-229 134,-713 0,-103 -31,-134 -134,-134l-2898 0 0 -1516 3077 0c245,0 178,-329 178,-669 0,-105 -74,-179 -178,-179l-3835 0c-105,0 -179,74 -179,179z"/>
   <path class="fil1" d="M48339 12620l0 2943c0,1064 142,2113 1069,2542 990,459 3213,437 3429,-1656 89,-862 50,-2901 50,-3829 0,-257 -385,-179 -802,-179 -218,0 -134,461 -134,669 1,857 107,3213 -207,3807 -353,664 -1758,715 -2254,37 -330,-449 -215,-3035 -215,-3799 0,-136 3,-270 4,-405 3,-374 64,-309 -762,-309 -104,0 -178,74 -178,179z"/>
   <path class="fil1" d="M31795 12531c0,157 188,553 251,730 91,256 172,462 271,709l1350 3556c78,194 222,512 268,713l892 0c17,-198 930,-2444 1076,-2849 1207,-3353 1519,-2949 173,-2949l-1287 3530c-79,211 -328,1062 -452,1153 -5,-194 -101,-430 -166,-593l-1044 -2970c-64,-192 -146,-391 -212,-590 -216,-654 12,-530 -986,-530 -73,0 -134,27 -134,90z"/>
   <path class="fil1" d="M53690 12575c0,485 -68,714 134,714l1650 0 0 4771c0,257 385,179 802,179 103,0 134,-31 134,-134l0 -4816 1650 0c246,0 179,-329 179,-669 0,-105 -74,-179 -179,-179l-4236 0c-103,0 -134,31 -134,134z"/>
   <path class="fil1" d="M43790 12620l0 5440c0,105 74,179 179,179l3300 0c245,0 178,-330 178,-669 0,-105 -74,-179 -178,-179l-2542 0 0 -4816c0,-206 -251,-134 -758,-134 -105,0 -179,74 -179,179z"/>
   <path class="fil1" d="M59130 12575l0 5530c0,206 251,134 758,134 103,0 134,-31 134,-134l0 -5530c0,-206 -251,-134 -758,-134 -103,0 -134,31 -134,134z"/>
   <path class="fil1" d="M57748 8696c261,0 312,44 535,44 105,-217 -37,-172 162,-373 377,-380 1024,-43 913,419 -176,729 -1655,1352 -1655,2050l0 223 2230 0 0 -490 -1471 0c173,-329 813,-689 1070,-1026 179,-233 401,-454 401,-892 0,-914 -771,-936 -1293,-936 -530,0 -880,453 -892,981z"/>
   <path class="fil0" d="M11951 17302l31 58c4,6 12,21 16,29l87 136c0,-1307 110,-362 -39,-1790 -26,-252 74,-707 -184,-707 -404,0 -232,691 -287,1051 -61,410 -51,905 -102,1280l-148 2573c-39,1297 504,1370 495,717l41 -1341c-2,-296 47,-385 47,-667 0,-497 43,-832 43,-1339z"/>
   <path class="fil1" d="M61628 11059l401 0c194,0 452,-657 669,-803 12,48 412,803 580,803 698,0 628,74 169,-615 -151,-227 -313,-444 -437,-678 126,-239 693,-917 713,-1160l-624 0c-68,257 -330,402 -401,669l-89 0c-36,-132 -317,-542 -402,-669l-624 0c33,393 825,977 666,1285l-624 901c-60,86 -229,267 3,267z"/>
   <path class="fil1" d="M68673 9632l-579 0 0 -758 535 0c285,0 579,85 579,357 0,283 -254,401 -535,401zm-1025 1382l446 0 0 -1070c495,0 571,-3 839,410 89,136 331,518 365,660l535 0c-77,-329 -595,-937 -714,-1114 144,-69 250,-90 370,-211 310,-313 211,-1127 -504,-1127l-1337 0 0 2452z"/>
   <path class="fil1" d="M70457 9900c0,-1488 1472,-1316 1472,-90 0,1257 -1472,1149 -1472,90zm-446 -134c0,684 402,1293 1026,1293 386,0 770,6 1053,-374 613,-823 186,-2168 -741,-2168 -386,0 -771,-6 -1053,374 -163,218 -285,516 -285,875z"/>
   <path class="fil1" d="M66310 9721l-491 0 0 -847c512,0 1026,-93 1026,446 0,283 -255,401 -535,401zm-937 1293l446 0 0 -981c614,0 1472,143 1472,-758 0,-914 -951,-713 -1918,-713l0 2452z"/>
   <polygon class="fil1" points="60513,11059 61093,11059 61093,10569 60513,10569 "/>
  </g>
 </g>
</svg>